<?xml version="1.0" encoding="utf-8" standalone="no"?>
<!DOCTYPE svg PUBLIC "-//W3C//DTD SVG 1.1//EN"
  "http://www.w3.org/Graphics/SVG/1.1/DTD/svg11.dtd">
<svg xmlns:xlink="http://www.w3.org/1999/xlink" width="682.430728pt" height="294.366125pt" viewBox="0 0 682.430728 294.366125" xmlns="http://www.w3.org/2000/svg" version="1.1">
 <metadata>
  <rdf:RDF xmlns:dc="http://purl.org/dc/elements/1.1/" xmlns:cc="http://creativecommons.org/ns#" xmlns:rdf="http://www.w3.org/1999/02/22-rdf-syntax-ns#">
   <cc:Work>
    <dc:type rdf:resource="http://purl.org/dc/dcmitype/StillImage"/>
    <dc:date>2026-06-27T18:12:43.928255</dc:date>
    <dc:format>image/svg+xml</dc:format>
    <dc:creator>
     <cc:Agent>
      <dc:title>Matplotlib v3.11.0, https://matplotlib.org/</dc:title>
     </cc:Agent>
    </dc:creator>
   </cc:Work>
  </rdf:RDF>
 </metadata>
 <defs>
  <style type="text/css">*{stroke-linejoin: round; stroke-linecap: butt}</style>
 </defs>
 <g id="figure_1">
  <g id="patch_1">
   <path d="M 0 294.366125 
L 682.430728 294.366125 
L 682.430728 0 
L 0 0 
z
" style="fill: #ffffff"/>
  </g>
  <g id="axes_1">
   <g id="patch_2">
    <path d="M 192.143906 255.166125 
L 649.703906 255.166125 
L 649.703906 22.318125 
L 192.143906 22.318125 
z
" style="fill: #ffffff"/>
   </g>
   <g id="patch_3">
    <path d="M 192.143906 61.309398 
L 587.661872 61.309398 
L 587.661872 32.902125 
L 192.143906 32.902125 
z
" clip-path="url(#p9c97f30747)" style="fill: #1565c0; opacity: 0.85"/>
   </g>
   <g id="patch_4">
    <path d="M 192.143906 107.12758 
L 583.823022 107.12758 
L 583.823022 78.720307 
L 192.143906 78.720307 
z
" clip-path="url(#p9c97f30747)" style="fill: #1565c0; opacity: 0.85"/>
   </g>
   <g id="patch_5">
    <path d="M 192.143906 152.945761 
L 267.331096 152.945761 
L 267.331096 124.538489 
L 192.143906 124.538489 
z
" clip-path="url(#p9c97f30747)" style="fill: #1565c0; opacity: 0.85"/>
   </g>
   <g id="patch_6">
    <path d="M 192.143906 198.763943 
L 205.366615 198.763943 
L 205.366615 170.35667 
L 192.143906 170.35667 
z
" clip-path="url(#p9c97f30747)" style="fill: #1565c0; opacity: 0.85"/>
   </g>
   <g id="patch_7">
    <path d="M 192.143906 244.582125 
L 197.146045 244.582125 
L 197.146045 216.174852 
L 192.143906 216.174852 
z
" clip-path="url(#p9c97f30747)" style="fill: #1565c0; opacity: 0.85"/>
   </g>
   <g id="matplotlib.axis_1">
    <g id="xtick_1">
     <g id="line2d_1">
      <path d="M 192.143906 255.166125 
L 192.143906 22.318125 
" clip-path="url(#p9c97f30747)" style="fill: none; stroke: #b0b0b0; stroke-opacity: 0.25; stroke-width: 0.6; stroke-linecap: square"/>
     </g>
     <g id="line2d_2">
      <defs>
       <path id="m2864c2f2ca" d="M 0 0 
L 0 3.5 
" style="stroke: #000000; stroke-width: 0.8"/>
      </defs>
      <g>
       <use xlink:href="#m2864c2f2ca" x="192.143906" y="255.166125" style="stroke: #000000; stroke-width: 0.8"/>
      </g>
     </g>
     <g id="text_1">
      <!-- 0 -->
      <g transform="translate(188.803594 270.143664) scale(0.105 -0.105)">
       <defs>
        <path id="DejaVuSans-13" d="M 2034 4250 
Q 1547 4250 1301 3770 
Q 1056 3291 1056 2328 
Q 1056 1369 1301 889 
Q 1547 409 2034 409 
Q 2525 409 2770 889 
Q 3016 1369 3016 2328 
Q 3016 3291 2770 3770 
Q 2525 4250 2034 4250 
z
M 2034 4750 
Q 2819 4750 3233 4129 
Q 3647 3509 3647 2328 
Q 3647 1150 3233 529 
Q 2819 -91 2034 -91 
Q 1250 -91 836 529 
Q 422 1150 422 2328 
Q 422 3509 836 4129 
Q 1250 4750 2034 4750 
z
" transform="scale(0.015625)"/>
       </defs>
       <use xlink:href="#DejaVuSans-13"/>
      </g>
     </g>
    </g>
    <g id="xtick_2">
     <g id="line2d_3">
      <path d="M 269.696449 255.166125 
L 269.696449 22.318125 
" clip-path="url(#p9c97f30747)" style="fill: none; stroke: #b0b0b0; stroke-opacity: 0.25; stroke-width: 0.6; stroke-linecap: square"/>
     </g>
     <g id="line2d_4">
      <g>
       <use xlink:href="#m2864c2f2ca" x="269.696449" y="255.166125" style="stroke: #000000; stroke-width: 0.8"/>
      </g>
     </g>
     <g id="text_2">
      <!-- 2000 -->
      <g transform="translate(256.335199 270.143664) scale(0.105 -0.105)">
       <defs>
        <path id="DejaVuSans-15" d="M 1228 531 
L 3431 531 
L 3431 0 
L 469 0 
L 469 531 
Q 828 903 1448 1529 
Q 2069 2156 2228 2338 
Q 2531 2678 2651 2914 
Q 2772 3150 2772 3378 
Q 2772 3750 2511 3984 
Q 2250 4219 1831 4219 
Q 1534 4219 1204 4116 
Q 875 4013 500 3803 
L 500 4441 
Q 881 4594 1212 4672 
Q 1544 4750 1819 4750 
Q 2544 4750 2975 4387 
Q 3406 4025 3406 3419 
Q 3406 3131 3298 2873 
Q 3191 2616 2906 2266 
Q 2828 2175 2409 1742 
Q 1991 1309 1228 531 
z
" transform="scale(0.015625)"/>
       </defs>
       <use xlink:href="#DejaVuSans-15"/>
       <use xlink:href="#DejaVuSans-13" transform="translate(63.625 0)"/>
       <use xlink:href="#DejaVuSans-13" transform="translate(127.25 0)"/>
       <use xlink:href="#DejaVuSans-13" transform="translate(190.875 0)"/>
      </g>
     </g>
    </g>
    <g id="xtick_3">
     <g id="line2d_5">
      <path d="M 347.248991 255.166125 
L 347.248991 22.318125 
" clip-path="url(#p9c97f30747)" style="fill: none; stroke: #b0b0b0; stroke-opacity: 0.25; stroke-width: 0.6; stroke-linecap: square"/>
     </g>
     <g id="line2d_6">
      <g>
       <use xlink:href="#m2864c2f2ca" x="347.248991" y="255.166125" style="stroke: #000000; stroke-width: 0.8"/>
      </g>
     </g>
     <g id="text_3">
      <!-- 4000 -->
      <g transform="translate(333.887741 270.143664) scale(0.105 -0.105)">
       <defs>
        <path id="DejaVuSans-17" d="M 2419 4116 
L 825 1625 
L 2419 1625 
L 2419 4116 
z
M 2253 4666 
L 3047 4666 
L 3047 1625 
L 3713 1625 
L 3713 1100 
L 3047 1100 
L 3047 0 
L 2419 0 
L 2419 1100 
L 313 1100 
L 313 1709 
L 2253 4666 
z
" transform="scale(0.015625)"/>
       </defs>
       <use xlink:href="#DejaVuSans-17"/>
       <use xlink:href="#DejaVuSans-13" transform="translate(63.625 0)"/>
       <use xlink:href="#DejaVuSans-13" transform="translate(127.25 0)"/>
       <use xlink:href="#DejaVuSans-13" transform="translate(190.875 0)"/>
      </g>
     </g>
    </g>
    <g id="xtick_4">
     <g id="line2d_7">
      <path d="M 424.801533 255.166125 
L 424.801533 22.318125 
" clip-path="url(#p9c97f30747)" style="fill: none; stroke: #b0b0b0; stroke-opacity: 0.25; stroke-width: 0.6; stroke-linecap: square"/>
     </g>
     <g id="line2d_8">
      <g>
       <use xlink:href="#m2864c2f2ca" x="424.801533" y="255.166125" style="stroke: #000000; stroke-width: 0.8"/>
      </g>
     </g>
     <g id="text_4">
      <!-- 6000 -->
      <g transform="translate(411.440283 270.143664) scale(0.105 -0.105)">
       <defs>
        <path id="DejaVuSans-19" d="M 2113 2584 
Q 1688 2584 1439 2293 
Q 1191 2003 1191 1497 
Q 1191 994 1439 701 
Q 1688 409 2113 409 
Q 2538 409 2786 701 
Q 3034 994 3034 1497 
Q 3034 2003 2786 2293 
Q 2538 2584 2113 2584 
z
M 3366 4563 
L 3366 3988 
Q 3128 4100 2886 4159 
Q 2644 4219 2406 4219 
Q 1781 4219 1451 3797 
Q 1122 3375 1075 2522 
Q 1259 2794 1537 2939 
Q 1816 3084 2150 3084 
Q 2853 3084 3261 2657 
Q 3669 2231 3669 1497 
Q 3669 778 3244 343 
Q 2819 -91 2113 -91 
Q 1303 -91 875 529 
Q 447 1150 447 2328 
Q 447 3434 972 4092 
Q 1497 4750 2381 4750 
Q 2619 4750 2861 4703 
Q 3103 4656 3366 4563 
z
" transform="scale(0.015625)"/>
       </defs>
       <use xlink:href="#DejaVuSans-19"/>
       <use xlink:href="#DejaVuSans-13" transform="translate(63.625 0)"/>
       <use xlink:href="#DejaVuSans-13" transform="translate(127.25 0)"/>
       <use xlink:href="#DejaVuSans-13" transform="translate(190.875 0)"/>
      </g>
     </g>
    </g>
    <g id="xtick_5">
     <g id="line2d_9">
      <path d="M 502.354076 255.166125 
L 502.354076 22.318125 
" clip-path="url(#p9c97f30747)" style="fill: none; stroke: #b0b0b0; stroke-opacity: 0.25; stroke-width: 0.6; stroke-linecap: square"/>
     </g>
     <g id="line2d_10">
      <g>
       <use xlink:href="#m2864c2f2ca" x="502.354076" y="255.166125" style="stroke: #000000; stroke-width: 0.8"/>
      </g>
     </g>
     <g id="text_5">
      <!-- 8000 -->
      <g transform="translate(488.992826 270.143664) scale(0.105 -0.105)">
       <defs>
        <path id="DejaVuSans-1b" d="M 2034 2216 
Q 1584 2216 1326 1975 
Q 1069 1734 1069 1313 
Q 1069 891 1326 650 
Q 1584 409 2034 409 
Q 2484 409 2743 651 
Q 3003 894 3003 1313 
Q 3003 1734 2745 1975 
Q 2488 2216 2034 2216 
z
M 1403 2484 
Q 997 2584 770 2862 
Q 544 3141 544 3541 
Q 544 4100 942 4425 
Q 1341 4750 2034 4750 
Q 2731 4750 3128 4425 
Q 3525 4100 3525 3541 
Q 3525 3141 3298 2862 
Q 3072 2584 2669 2484 
Q 3125 2378 3379 2068 
Q 3634 1759 3634 1313 
Q 3634 634 3220 271 
Q 2806 -91 2034 -91 
Q 1263 -91 848 271 
Q 434 634 434 1313 
Q 434 1759 690 2068 
Q 947 2378 1403 2484 
z
M 1172 3481 
Q 1172 3119 1398 2916 
Q 1625 2713 2034 2713 
Q 2441 2713 2670 2916 
Q 2900 3119 2900 3481 
Q 2900 3844 2670 4047 
Q 2441 4250 2034 4250 
Q 1625 4250 1398 4047 
Q 1172 3844 1172 3481 
z
" transform="scale(0.015625)"/>
       </defs>
       <use xlink:href="#DejaVuSans-1b"/>
       <use xlink:href="#DejaVuSans-13" transform="translate(63.625 0)"/>
       <use xlink:href="#DejaVuSans-13" transform="translate(127.25 0)"/>
       <use xlink:href="#DejaVuSans-13" transform="translate(190.875 0)"/>
      </g>
     </g>
    </g>
    <g id="xtick_6">
     <g id="line2d_11">
      <path d="M 579.906618 255.166125 
L 579.906618 22.318125 
" clip-path="url(#p9c97f30747)" style="fill: none; stroke: #b0b0b0; stroke-opacity: 0.25; stroke-width: 0.6; stroke-linecap: square"/>
     </g>
     <g id="line2d_12">
      <g>
       <use xlink:href="#m2864c2f2ca" x="579.906618" y="255.166125" style="stroke: #000000; stroke-width: 0.8"/>
      </g>
     </g>
     <g id="text_6">
      <!-- 10000 -->
      <g transform="translate(563.205056 270.143664) scale(0.105 -0.105)">
       <defs>
        <path id="DejaVuSans-14" d="M 794 531 
L 1825 531 
L 1825 4091 
L 703 3866 
L 703 4441 
L 1819 4666 
L 2450 4666 
L 2450 531 
L 3481 531 
L 3481 0 
L 794 0 
L 794 531 
z
" transform="scale(0.015625)"/>
       </defs>
       <use xlink:href="#DejaVuSans-14"/>
       <use xlink:href="#DejaVuSans-13" transform="translate(63.625 0)"/>
       <use xlink:href="#DejaVuSans-13" transform="translate(127.25 0)"/>
       <use xlink:href="#DejaVuSans-13" transform="translate(190.875 0)"/>
       <use xlink:href="#DejaVuSans-13" transform="translate(254.5 0)"/>
      </g>
     </g>
    </g>
    <g id="text_7">
     <!-- papers -->
     <g transform="translate(402.917227 284.643664) scale(0.105 -0.105)">
      <defs>
       <path id="DejaVuSans-53" d="M 1159 525 
L 1159 -1331 
L 581 -1331 
L 581 3500 
L 1159 3500 
L 1159 2969 
Q 1341 3281 1617 3432 
Q 1894 3584 2278 3584 
Q 2916 3584 3314 3078 
Q 3713 2572 3713 1747 
Q 3713 922 3314 415 
Q 2916 -91 2278 -91 
Q 1894 -91 1617 61 
Q 1341 213 1159 525 
z
M 3116 1747 
Q 3116 2381 2855 2742 
Q 2594 3103 2138 3103 
Q 1681 3103 1420 2742 
Q 1159 2381 1159 1747 
Q 1159 1113 1420 752 
Q 1681 391 2138 391 
Q 2594 391 2855 752 
Q 3116 1113 3116 1747 
z
" transform="scale(0.015625)"/>
       <path id="DejaVuSans-44" d="M 2194 1759 
Q 1497 1759 1228 1600 
Q 959 1441 959 1056 
Q 959 750 1161 570 
Q 1363 391 1709 391 
Q 2188 391 2477 730 
Q 2766 1069 2766 1631 
L 2766 1759 
L 2194 1759 
z
M 3341 1997 
L 3341 0 
L 2766 0 
L 2766 531 
Q 2569 213 2275 61 
Q 1981 -91 1556 -91 
Q 1019 -91 701 211 
Q 384 513 384 1019 
Q 384 1609 779 1909 
Q 1175 2209 1959 2209 
L 2766 2209 
L 2766 2266 
Q 2766 2663 2505 2880 
Q 2244 3097 1772 3097 
Q 1472 3097 1187 3025 
Q 903 2953 641 2809 
L 641 3341 
Q 956 3463 1253 3523 
Q 1550 3584 1831 3584 
Q 2591 3584 2966 3190 
Q 3341 2797 3341 1997 
z
" transform="scale(0.015625)"/>
       <path id="DejaVuSans-48" d="M 3597 1894 
L 3597 1613 
L 953 1613 
Q 991 1019 1311 708 
Q 1631 397 2203 397 
Q 2534 397 2845 478 
Q 3156 559 3463 722 
L 3463 178 
Q 3153 47 2828 -22 
Q 2503 -91 2169 -91 
Q 1331 -91 842 396 
Q 353 884 353 1716 
Q 353 2575 817 3079 
Q 1281 3584 2069 3584 
Q 2775 3584 3186 3129 
Q 3597 2675 3597 1894 
z
M 3022 2063 
Q 3016 2534 2758 2815 
Q 2500 3097 2075 3097 
Q 1594 3097 1305 2825 
Q 1016 2553 972 2059 
L 3022 2063 
z
" transform="scale(0.015625)"/>
       <path id="DejaVuSans-55" d="M 2631 2963 
Q 2534 3019 2420 3045 
Q 2306 3072 2169 3072 
Q 1681 3072 1420 2755 
Q 1159 2438 1159 1844 
L 1159 0 
L 581 0 
L 581 3500 
L 1159 3500 
L 1159 2956 
Q 1341 3275 1631 3429 
Q 1922 3584 2338 3584 
Q 2397 3584 2469 3576 
Q 2541 3569 2628 3553 
L 2631 2963 
z
" transform="scale(0.015625)"/>
       <path id="DejaVuSans-56" d="M 2834 3397 
L 2834 2853 
Q 2591 2978 2328 3040 
Q 2066 3103 1784 3103 
Q 1356 3103 1142 2972 
Q 928 2841 928 2578 
Q 928 2378 1081 2264 
Q 1234 2150 1697 2047 
L 1894 2003 
Q 2506 1872 2764 1633 
Q 3022 1394 3022 966 
Q 3022 478 2636 193 
Q 2250 -91 1575 -91 
Q 1294 -91 989 -36 
Q 684 19 347 128 
L 347 722 
Q 666 556 975 473 
Q 1284 391 1588 391 
Q 1994 391 2212 530 
Q 2431 669 2431 922 
Q 2431 1156 2273 1281 
Q 2116 1406 1581 1522 
L 1381 1569 
Q 847 1681 609 1914 
Q 372 2147 372 2553 
Q 372 3047 722 3315 
Q 1072 3584 1716 3584 
Q 2034 3584 2315 3537 
Q 2597 3491 2834 3397 
z
" transform="scale(0.015625)"/>
      </defs>
      <use xlink:href="#DejaVuSans-53"/>
      <use xlink:href="#DejaVuSans-44" transform="translate(63.484375 0)"/>
      <use xlink:href="#DejaVuSans-53" transform="translate(124.765625 0)"/>
      <use xlink:href="#DejaVuSans-48" transform="translate(188.25 0)"/>
      <use xlink:href="#DejaVuSans-55" transform="translate(249.78125 0)"/>
      <use xlink:href="#DejaVuSans-56" transform="translate(290.890625 0)"/>
     </g>
    </g>
   </g>
   <g id="matplotlib.axis_2">
    <g id="ytick_1">
     <g id="line2d_13">
      <defs>
       <path id="mb67c8a815c" d="M 0 0 
L -3.5 0 
" style="stroke: #000000; stroke-width: 0.8"/>
      </defs>
      <g>
       <use xlink:href="#mb67c8a815c" x="192.143906" y="47.105761" style="stroke: #000000; stroke-width: 0.8"/>
      </g>
     </g>
     <g id="text_8">
      <!-- PMC IDs enumerated -->
      <g transform="translate(85.166797 50.715019) scale(0.095 -0.095)">
       <defs>
        <path id="DejaVuSans-33" d="M 1259 4147 
L 1259 2394 
L 2053 2394 
Q 2494 2394 2734 2622 
Q 2975 2850 2975 3272 
Q 2975 3691 2734 3919 
Q 2494 4147 2053 4147 
L 1259 4147 
z
M 628 4666 
L 2053 4666 
Q 2838 4666 3239 4311 
Q 3641 3956 3641 3272 
Q 3641 2581 3239 2228 
Q 2838 1875 2053 1875 
L 1259 1875 
L 1259 0 
L 628 0 
L 628 4666 
z
" transform="scale(0.015625)"/>
        <path id="DejaVuSans-30" d="M 628 4666 
L 1569 4666 
L 2759 1491 
L 3956 4666 
L 4897 4666 
L 4897 0 
L 4281 0 
L 4281 4097 
L 3078 897 
L 2444 897 
L 1241 4097 
L 1241 0 
L 628 0 
L 628 4666 
z
" transform="scale(0.015625)"/>
        <path id="DejaVuSans-26" d="M 4122 4306 
L 4122 3641 
Q 3803 3938 3442 4084 
Q 3081 4231 2675 4231 
Q 1875 4231 1450 3742 
Q 1025 3253 1025 2328 
Q 1025 1406 1450 917 
Q 1875 428 2675 428 
Q 3081 428 3442 575 
Q 3803 722 4122 1019 
L 4122 359 
Q 3791 134 3420 21 
Q 3050 -91 2638 -91 
Q 1578 -91 968 557 
Q 359 1206 359 2328 
Q 359 3453 968 4101 
Q 1578 4750 2638 4750 
Q 3056 4750 3426 4639 
Q 3797 4528 4122 4306 
z
" transform="scale(0.015625)"/>
        <path id="DejaVuSans-3" transform="scale(0.015625)"/>
        <path id="DejaVuSans-2c" d="M 628 4666 
L 1259 4666 
L 1259 0 
L 628 0 
L 628 4666 
z
" transform="scale(0.015625)"/>
        <path id="DejaVuSans-27" d="M 1259 4147 
L 1259 519 
L 2022 519 
Q 2988 519 3436 956 
Q 3884 1394 3884 2338 
Q 3884 3275 3436 3711 
Q 2988 4147 2022 4147 
L 1259 4147 
z
M 628 4666 
L 1925 4666 
Q 3281 4666 3915 4102 
Q 4550 3538 4550 2338 
Q 4550 1131 3912 565 
Q 3275 0 1925 0 
L 628 0 
L 628 4666 
z
" transform="scale(0.015625)"/>
        <path id="DejaVuSans-51" d="M 3513 2113 
L 3513 0 
L 2938 0 
L 2938 2094 
Q 2938 2591 2744 2837 
Q 2550 3084 2163 3084 
Q 1697 3084 1428 2787 
Q 1159 2491 1159 1978 
L 1159 0 
L 581 0 
L 581 3500 
L 1159 3500 
L 1159 2956 
Q 1366 3272 1645 3428 
Q 1925 3584 2291 3584 
Q 2894 3584 3203 3211 
Q 3513 2838 3513 2113 
z
" transform="scale(0.015625)"/>
        <path id="DejaVuSans-58" d="M 544 1381 
L 544 3500 
L 1119 3500 
L 1119 1403 
Q 1119 906 1312 657 
Q 1506 409 1894 409 
Q 2359 409 2629 706 
Q 2900 1003 2900 1516 
L 2900 3500 
L 3475 3500 
L 3475 0 
L 2900 0 
L 2900 538 
Q 2691 219 2414 64 
Q 2138 -91 1772 -91 
Q 1169 -91 856 284 
Q 544 659 544 1381 
z
M 1991 3584 
L 1991 3584 
z
" transform="scale(0.015625)"/>
        <path id="DejaVuSans-50" d="M 3328 2828 
Q 3544 3216 3844 3400 
Q 4144 3584 4550 3584 
Q 5097 3584 5394 3201 
Q 5691 2819 5691 2113 
L 5691 0 
L 5113 0 
L 5113 2094 
Q 5113 2597 4934 2840 
Q 4756 3084 4391 3084 
Q 3944 3084 3684 2787 
Q 3425 2491 3425 1978 
L 3425 0 
L 2847 0 
L 2847 2094 
Q 2847 2600 2669 2842 
Q 2491 3084 2119 3084 
Q 1678 3084 1418 2786 
Q 1159 2488 1159 1978 
L 1159 0 
L 581 0 
L 581 3500 
L 1159 3500 
L 1159 2956 
Q 1356 3278 1631 3431 
Q 1906 3584 2284 3584 
Q 2666 3584 2933 3390 
Q 3200 3197 3328 2828 
z
" transform="scale(0.015625)"/>
        <path id="DejaVuSans-57" d="M 1172 4494 
L 1172 3500 
L 2356 3500 
L 2356 3053 
L 1172 3053 
L 1172 1153 
Q 1172 725 1289 603 
Q 1406 481 1766 481 
L 2356 481 
L 2356 0 
L 1766 0 
Q 1100 0 847 248 
Q 594 497 594 1153 
L 594 3053 
L 172 3053 
L 172 3500 
L 594 3500 
L 594 4494 
L 1172 4494 
z
" transform="scale(0.015625)"/>
        <path id="DejaVuSans-47" d="M 2906 2969 
L 2906 4863 
L 3481 4863 
L 3481 0 
L 2906 0 
L 2906 525 
Q 2725 213 2448 61 
Q 2172 -91 1784 -91 
Q 1150 -91 751 415 
Q 353 922 353 1747 
Q 353 2572 751 3078 
Q 1150 3584 1784 3584 
Q 2172 3584 2448 3432 
Q 2725 3281 2906 2969 
z
M 947 1747 
Q 947 1113 1208 752 
Q 1469 391 1925 391 
Q 2381 391 2643 752 
Q 2906 1113 2906 1747 
Q 2906 2381 2643 2742 
Q 2381 3103 1925 3103 
Q 1469 3103 1208 2742 
Q 947 2381 947 1747 
z
" transform="scale(0.015625)"/>
       </defs>
       <use xlink:href="#DejaVuSans-33"/>
       <use xlink:href="#DejaVuSans-30" transform="translate(60.296875 0)"/>
       <use xlink:href="#DejaVuSans-26" transform="translate(146.578125 0)"/>
       <use xlink:href="#DejaVuSans-3" transform="translate(216.40625 0)"/>
       <use xlink:href="#DejaVuSans-2c" transform="translate(248.1875 0)"/>
       <use xlink:href="#DejaVuSans-27" transform="translate(277.6875 0)"/>
       <use xlink:href="#DejaVuSans-56" transform="translate(354.6875 0)"/>
       <use xlink:href="#DejaVuSans-3" transform="translate(406.78125 0)"/>
       <use xlink:href="#DejaVuSans-48" transform="translate(438.5625 0)"/>
       <use xlink:href="#DejaVuSans-51" transform="translate(500.09375 0)"/>
       <use xlink:href="#DejaVuSans-58" transform="translate(563.46875 0)"/>
       <use xlink:href="#DejaVuSans-50" transform="translate(626.84375 0)"/>
       <use xlink:href="#DejaVuSans-48" transform="translate(724.25 0)"/>
       <use xlink:href="#DejaVuSans-55" transform="translate(785.78125 0)"/>
       <use xlink:href="#DejaVuSans-44" transform="translate(826.890625 0)"/>
       <use xlink:href="#DejaVuSans-57" transform="translate(888.171875 0)"/>
       <use xlink:href="#DejaVuSans-48" transform="translate(927.375 0)"/>
       <use xlink:href="#DejaVuSans-47" transform="translate(988.90625 0)"/>
      </g>
     </g>
    </g>
    <g id="ytick_2">
     <g id="line2d_14">
      <g>
       <use xlink:href="#mb67c8a815c" x="192.143906" y="92.923943" style="stroke: #000000; stroke-width: 0.8"/>
      </g>
     </g>
     <g id="text_9">
      <!-- Full-text body fetched -->
      <g transform="translate(81.151562 96.533201) scale(0.095 -0.095)">
       <defs>
        <path id="DejaVuSans-29" d="M 628 4666 
L 3309 4666 
L 3309 4134 
L 1259 4134 
L 1259 2759 
L 3109 2759 
L 3109 2228 
L 1259 2228 
L 1259 0 
L 628 0 
L 628 4666 
z
" transform="scale(0.015625)"/>
        <path id="DejaVuSans-4f" d="M 603 4863 
L 1178 4863 
L 1178 0 
L 603 0 
L 603 4863 
z
" transform="scale(0.015625)"/>
        <path id="DejaVuSans-10" d="M 313 2009 
L 1997 2009 
L 1997 1497 
L 313 1497 
L 313 2009 
z
" transform="scale(0.015625)"/>
        <path id="DejaVuSans-5b" d="M 3513 3500 
L 2247 1797 
L 3578 0 
L 2900 0 
L 1881 1375 
L 863 0 
L 184 0 
L 1544 1831 
L 300 3500 
L 978 3500 
L 1906 2253 
L 2834 3500 
L 3513 3500 
z
" transform="scale(0.015625)"/>
        <path id="DejaVuSans-45" d="M 3116 1747 
Q 3116 2381 2855 2742 
Q 2594 3103 2138 3103 
Q 1681 3103 1420 2742 
Q 1159 2381 1159 1747 
Q 1159 1113 1420 752 
Q 1681 391 2138 391 
Q 2594 391 2855 752 
Q 3116 1113 3116 1747 
z
M 1159 2969 
Q 1341 3281 1617 3432 
Q 1894 3584 2278 3584 
Q 2916 3584 3314 3078 
Q 3713 2572 3713 1747 
Q 3713 922 3314 415 
Q 2916 -91 2278 -91 
Q 1894 -91 1617 61 
Q 1341 213 1159 525 
L 1159 0 
L 581 0 
L 581 4863 
L 1159 4863 
L 1159 2969 
z
" transform="scale(0.015625)"/>
        <path id="DejaVuSans-52" d="M 1959 3097 
Q 1497 3097 1228 2736 
Q 959 2375 959 1747 
Q 959 1119 1226 758 
Q 1494 397 1959 397 
Q 2419 397 2687 759 
Q 2956 1122 2956 1747 
Q 2956 2369 2687 2733 
Q 2419 3097 1959 3097 
z
M 1959 3584 
Q 2709 3584 3137 3096 
Q 3566 2609 3566 1747 
Q 3566 888 3137 398 
Q 2709 -91 1959 -91 
Q 1206 -91 779 398 
Q 353 888 353 1747 
Q 353 2609 779 3096 
Q 1206 3584 1959 3584 
z
" transform="scale(0.015625)"/>
        <path id="DejaVuSans-5c" d="M 2059 -325 
Q 1816 -950 1584 -1140 
Q 1353 -1331 966 -1331 
L 506 -1331 
L 506 -850 
L 844 -850 
Q 1081 -850 1212 -737 
Q 1344 -625 1503 -206 
L 1606 56 
L 191 3500 
L 800 3500 
L 1894 763 
L 2988 3500 
L 3597 3500 
L 2059 -325 
z
" transform="scale(0.015625)"/>
        <path id="DejaVuSans-49" d="M 2375 4863 
L 2375 4384 
L 1825 4384 
Q 1516 4384 1395 4259 
Q 1275 4134 1275 3809 
L 1275 3500 
L 2222 3500 
L 2222 3053 
L 1275 3053 
L 1275 0 
L 697 0 
L 697 3053 
L 147 3053 
L 147 3500 
L 697 3500 
L 697 3744 
Q 697 4328 969 4595 
Q 1241 4863 1831 4863 
L 2375 4863 
z
" transform="scale(0.015625)"/>
        <path id="DejaVuSans-46" d="M 3122 3366 
L 3122 2828 
Q 2878 2963 2633 3030 
Q 2388 3097 2138 3097 
Q 1578 3097 1268 2742 
Q 959 2388 959 1747 
Q 959 1106 1268 751 
Q 1578 397 2138 397 
Q 2388 397 2633 464 
Q 2878 531 3122 666 
L 3122 134 
Q 2881 22 2623 -34 
Q 2366 -91 2075 -91 
Q 1284 -91 818 406 
Q 353 903 353 1747 
Q 353 2603 823 3093 
Q 1294 3584 2113 3584 
Q 2378 3584 2631 3529 
Q 2884 3475 3122 3366 
z
" transform="scale(0.015625)"/>
        <path id="DejaVuSans-4b" d="M 3513 2113 
L 3513 0 
L 2938 0 
L 2938 2094 
Q 2938 2591 2744 2837 
Q 2550 3084 2163 3084 
Q 1697 3084 1428 2787 
Q 1159 2491 1159 1978 
L 1159 0 
L 581 0 
L 581 4863 
L 1159 4863 
L 1159 2956 
Q 1366 3272 1645 3428 
Q 1925 3584 2291 3584 
Q 2894 3584 3203 3211 
Q 3513 2838 3513 2113 
z
" transform="scale(0.015625)"/>
       </defs>
       <use xlink:href="#DejaVuSans-29"/>
       <use xlink:href="#DejaVuSans-58" transform="translate(52.046875 0)"/>
       <use xlink:href="#DejaVuSans-4f" transform="translate(115.421875 0)"/>
       <use xlink:href="#DejaVuSans-4f" transform="translate(143.203125 0)"/>
       <use xlink:href="#DejaVuSans-10" transform="translate(170.984375 0)"/>
       <use xlink:href="#DejaVuSans-57" transform="translate(207.0625 0)"/>
       <use xlink:href="#DejaVuSans-48" transform="translate(246.265625 0)"/>
       <use xlink:href="#DejaVuSans-5b" transform="translate(306.046875 0)"/>
       <use xlink:href="#DejaVuSans-57" transform="translate(365.234375 0)"/>
       <use xlink:href="#DejaVuSans-3" transform="translate(404.4375 0)"/>
       <use xlink:href="#DejaVuSans-45" transform="translate(436.21875 0)"/>
       <use xlink:href="#DejaVuSans-52" transform="translate(499.703125 0)"/>
       <use xlink:href="#DejaVuSans-47" transform="translate(560.890625 0)"/>
       <use xlink:href="#DejaVuSans-5c" transform="translate(624.375 0)"/>
       <use xlink:href="#DejaVuSans-3" transform="translate(683.5625 0)"/>
       <use xlink:href="#DejaVuSans-49" transform="translate(715.34375 0)"/>
       <use xlink:href="#DejaVuSans-48" transform="translate(750.546875 0)"/>
       <use xlink:href="#DejaVuSans-57" transform="translate(812.078125 0)"/>
       <use xlink:href="#DejaVuSans-46" transform="translate(851.28125 0)"/>
       <use xlink:href="#DejaVuSans-4b" transform="translate(906.265625 0)"/>
       <use xlink:href="#DejaVuSans-48" transform="translate(969.640625 0)"/>
       <use xlink:href="#DejaVuSans-47" transform="translate(1031.171875 0)"/>
      </g>
     </g>
    </g>
    <g id="ytick_3">
     <g id="line2d_15">
      <g>
       <use xlink:href="#mb67c8a815c" x="192.143906" y="138.742125" style="stroke: #000000; stroke-width: 0.8"/>
      </g>
     </g>
     <g id="text_10">
      <!-- &gt;=1 extracted test claim -->
      <g transform="translate(64.7225 142.351383) scale(0.095 -0.095)">
       <defs>
        <path id="DejaVuSans-21" d="M 678 3150 
L 678 3719 
L 4684 2266 
L 4684 1747 
L 678 294 
L 678 863 
L 3897 2003 
L 678 3150 
z
" transform="scale(0.015625)"/>
        <path id="DejaVuSans-20" d="M 678 2906 
L 4684 2906 
L 4684 2381 
L 678 2381 
L 678 2906 
z
M 678 1631 
L 4684 1631 
L 4684 1100 
L 678 1100 
L 678 1631 
z
" transform="scale(0.015625)"/>
        <path id="DejaVuSans-4c" d="M 603 3500 
L 1178 3500 
L 1178 0 
L 603 0 
L 603 3500 
z
M 603 4863 
L 1178 4863 
L 1178 4134 
L 603 4134 
L 603 4863 
z
" transform="scale(0.015625)"/>
       </defs>
       <use xlink:href="#DejaVuSans-21"/>
       <use xlink:href="#DejaVuSans-20" transform="translate(83.796875 0)"/>
       <use xlink:href="#DejaVuSans-14" transform="translate(167.59375 0)"/>
       <use xlink:href="#DejaVuSans-3" transform="translate(231.21875 0)"/>
       <use xlink:href="#DejaVuSans-48" transform="translate(263 0)"/>
       <use xlink:href="#DejaVuSans-5b" transform="translate(322.78125 0)"/>
       <use xlink:href="#DejaVuSans-57" transform="translate(381.96875 0)"/>
       <use xlink:href="#DejaVuSans-55" transform="translate(421.171875 0)"/>
       <use xlink:href="#DejaVuSans-44" transform="translate(462.28125 0)"/>
       <use xlink:href="#DejaVuSans-46" transform="translate(523.5625 0)"/>
       <use xlink:href="#DejaVuSans-57" transform="translate(578.546875 0)"/>
       <use xlink:href="#DejaVuSans-48" transform="translate(617.75 0)"/>
       <use xlink:href="#DejaVuSans-47" transform="translate(679.28125 0)"/>
       <use xlink:href="#DejaVuSans-3" transform="translate(742.765625 0)"/>
       <use xlink:href="#DejaVuSans-57" transform="translate(774.546875 0)"/>
       <use xlink:href="#DejaVuSans-48" transform="translate(813.75 0)"/>
       <use xlink:href="#DejaVuSans-56" transform="translate(875.28125 0)"/>
       <use xlink:href="#DejaVuSans-57" transform="translate(927.375 0)"/>
       <use xlink:href="#DejaVuSans-3" transform="translate(966.578125 0)"/>
       <use xlink:href="#DejaVuSans-46" transform="translate(998.359375 0)"/>
       <use xlink:href="#DejaVuSans-4f" transform="translate(1053.34375 0)"/>
       <use xlink:href="#DejaVuSans-44" transform="translate(1081.125 0)"/>
       <use xlink:href="#DejaVuSans-4c" transform="translate(1142.40625 0)"/>
       <use xlink:href="#DejaVuSans-50" transform="translate(1170.1875 0)"/>
      </g>
     </g>
    </g>
    <g id="ytick_4">
     <g id="line2d_16">
      <g>
       <use xlink:href="#mb67c8a815c" x="192.143906" y="184.560307" style="stroke: #000000; stroke-width: 0.8"/>
      </g>
     </g>
     <g id="text_11">
      <!-- &gt;=1 checkable (recomputable) claim -->
      <g transform="translate(7.2 188.169565) scale(0.095 -0.095)">
       <defs>
        <path id="DejaVuSans-4e" d="M 581 4863 
L 1159 4863 
L 1159 1991 
L 2875 3500 
L 3609 3500 
L 1753 1863 
L 3688 0 
L 2938 0 
L 1159 1709 
L 1159 0 
L 581 0 
L 581 4863 
z
" transform="scale(0.015625)"/>
        <path id="DejaVuSans-b" d="M 1984 4856 
Q 1566 4138 1362 3434 
Q 1159 2731 1159 2009 
Q 1159 1288 1364 580 
Q 1569 -128 1984 -844 
L 1484 -844 
Q 1016 -109 783 600 
Q 550 1309 550 2009 
Q 550 2706 781 3412 
Q 1013 4119 1484 4856 
L 1984 4856 
z
" transform="scale(0.015625)"/>
        <path id="DejaVuSans-c" d="M 513 4856 
L 1013 4856 
Q 1481 4119 1714 3412 
Q 1947 2706 1947 2009 
Q 1947 1309 1714 600 
Q 1481 -109 1013 -844 
L 513 -844 
Q 928 -128 1133 580 
Q 1338 1288 1338 2009 
Q 1338 2731 1133 3434 
Q 928 4138 513 4856 
z
" transform="scale(0.015625)"/>
       </defs>
       <use xlink:href="#DejaVuSans-21"/>
       <use xlink:href="#DejaVuSans-20" transform="translate(83.796875 0)"/>
       <use xlink:href="#DejaVuSans-14" transform="translate(167.59375 0)"/>
       <use xlink:href="#DejaVuSans-3" transform="translate(231.21875 0)"/>
       <use xlink:href="#DejaVuSans-46" transform="translate(263 0)"/>
       <use xlink:href="#DejaVuSans-4b" transform="translate(317.984375 0)"/>
       <use xlink:href="#DejaVuSans-48" transform="translate(381.359375 0)"/>
       <use xlink:href="#DejaVuSans-46" transform="translate(442.890625 0)"/>
       <use xlink:href="#DejaVuSans-4e" transform="translate(497.875 0)"/>
       <use xlink:href="#DejaVuSans-44" transform="translate(554.03125 0)"/>
       <use xlink:href="#DejaVuSans-45" transform="translate(615.3125 0)"/>
       <use xlink:href="#DejaVuSans-4f" transform="translate(678.796875 0)"/>
       <use xlink:href="#DejaVuSans-48" transform="translate(706.578125 0)"/>
       <use xlink:href="#DejaVuSans-3" transform="translate(768.109375 0)"/>
       <use xlink:href="#DejaVuSans-b" transform="translate(799.890625 0)"/>
       <use xlink:href="#DejaVuSans-55" transform="translate(838.90625 0)"/>
       <use xlink:href="#DejaVuSans-48" transform="translate(877.8125 0)"/>
       <use xlink:href="#DejaVuSans-46" transform="translate(939.34375 0)"/>
       <use xlink:href="#DejaVuSans-52" transform="translate(994.328125 0)"/>
       <use xlink:href="#DejaVuSans-50" transform="translate(1055.515625 0)"/>
       <use xlink:href="#DejaVuSans-53" transform="translate(1152.921875 0)"/>
       <use xlink:href="#DejaVuSans-58" transform="translate(1216.40625 0)"/>
       <use xlink:href="#DejaVuSans-57" transform="translate(1279.78125 0)"/>
       <use xlink:href="#DejaVuSans-44" transform="translate(1318.984375 0)"/>
       <use xlink:href="#DejaVuSans-45" transform="translate(1380.265625 0)"/>
       <use xlink:href="#DejaVuSans-4f" transform="translate(1443.75 0)"/>
       <use xlink:href="#DejaVuSans-48" transform="translate(1471.53125 0)"/>
       <use xlink:href="#DejaVuSans-c" transform="translate(1533.0625 0)"/>
       <use xlink:href="#DejaVuSans-3" transform="translate(1572.078125 0)"/>
       <use xlink:href="#DejaVuSans-46" transform="translate(1603.859375 0)"/>
       <use xlink:href="#DejaVuSans-4f" transform="translate(1658.84375 0)"/>
       <use xlink:href="#DejaVuSans-44" transform="translate(1686.625 0)"/>
       <use xlink:href="#DejaVuSans-4c" transform="translate(1747.90625 0)"/>
       <use xlink:href="#DejaVuSans-50" transform="translate(1775.6875 0)"/>
      </g>
     </g>
    </g>
    <g id="ytick_5">
     <g id="line2d_17">
      <g>
       <use xlink:href="#mb67c8a815c" x="192.143906" y="230.378489" style="stroke: #000000; stroke-width: 0.8"/>
      </g>
     </g>
     <g id="text_12">
      <!-- &gt;=1 internal inconsistency -->
      <g transform="translate(55.998828 233.987746) scale(0.095 -0.095)">
       <use xlink:href="#DejaVuSans-21"/>
       <use xlink:href="#DejaVuSans-20" transform="translate(83.796875 0)"/>
       <use xlink:href="#DejaVuSans-14" transform="translate(167.59375 0)"/>
       <use xlink:href="#DejaVuSans-3" transform="translate(231.21875 0)"/>
       <use xlink:href="#DejaVuSans-4c" transform="translate(263 0)"/>
       <use xlink:href="#DejaVuSans-51" transform="translate(290.78125 0)"/>
       <use xlink:href="#DejaVuSans-57" transform="translate(354.15625 0)"/>
       <use xlink:href="#DejaVuSans-48" transform="translate(393.359375 0)"/>
       <use xlink:href="#DejaVuSans-55" transform="translate(454.890625 0)"/>
       <use xlink:href="#DejaVuSans-51" transform="translate(494.25 0)"/>
       <use xlink:href="#DejaVuSans-44" transform="translate(557.625 0)"/>
       <use xlink:href="#DejaVuSans-4f" transform="translate(618.90625 0)"/>
       <use xlink:href="#DejaVuSans-3" transform="translate(646.6875 0)"/>
       <use xlink:href="#DejaVuSans-4c" transform="translate(678.46875 0)"/>
       <use xlink:href="#DejaVuSans-51" transform="translate(706.25 0)"/>
       <use xlink:href="#DejaVuSans-46" transform="translate(769.625 0)"/>
       <use xlink:href="#DejaVuSans-52" transform="translate(824.609375 0)"/>
       <use xlink:href="#DejaVuSans-51" transform="translate(885.796875 0)"/>
       <use xlink:href="#DejaVuSans-56" transform="translate(949.171875 0)"/>
       <use xlink:href="#DejaVuSans-4c" transform="translate(1001.265625 0)"/>
       <use xlink:href="#DejaVuSans-56" transform="translate(1029.046875 0)"/>
       <use xlink:href="#DejaVuSans-57" transform="translate(1081.140625 0)"/>
       <use xlink:href="#DejaVuSans-48" transform="translate(1120.34375 0)"/>
       <use xlink:href="#DejaVuSans-51" transform="translate(1181.875 0)"/>
       <use xlink:href="#DejaVuSans-46" transform="translate(1245.25 0)"/>
       <use xlink:href="#DejaVuSans-5c" transform="translate(1300.234375 0)"/>
      </g>
     </g>
    </g>
   </g>
   <g id="patch_8">
    <path d="M 192.143906 255.166125 
L 192.143906 22.318125 
" style="fill: none; stroke: #000000; stroke-width: 0.8; stroke-linejoin: miter; stroke-linecap: square"/>
   </g>
   <g id="patch_9">
    <path d="M 192.143906 255.166125 
L 649.703906 255.166125 
" style="fill: none; stroke: #000000; stroke-width: 0.8; stroke-linejoin: miter; stroke-linecap: square"/>
   </g>
   <g id="text_13">
    <!-- 10,200  (100.0%) -->
    <g transform="translate(592.315025 49.573535) scale(0.095 -0.095)">
     <defs>
      <path id="DejaVuSans-f" d="M 750 794 
L 1409 794 
L 1409 256 
L 897 -744 
L 494 -744 
L 750 256 
L 750 794 
z
" transform="scale(0.015625)"/>
      <path id="DejaVuSans-11" d="M 684 794 
L 1344 794 
L 1344 0 
L 684 0 
L 684 794 
z
" transform="scale(0.015625)"/>
      <path id="DejaVuSans-8" d="M 4653 2053 
Q 4381 2053 4226 1822 
Q 4072 1591 4072 1178 
Q 4072 772 4226 539 
Q 4381 306 4653 306 
Q 4919 306 5073 539 
Q 5228 772 5228 1178 
Q 5228 1588 5073 1820 
Q 4919 2053 4653 2053 
z
M 4653 2450 
Q 5147 2450 5437 2106 
Q 5728 1763 5728 1178 
Q 5728 594 5436 251 
Q 5144 -91 4653 -91 
Q 4153 -91 3862 251 
Q 3572 594 3572 1178 
Q 3572 1766 3864 2108 
Q 4156 2450 4653 2450 
z
M 1428 4353 
Q 1159 4353 1004 4120 
Q 850 3888 850 3481 
Q 850 3069 1003 2837 
Q 1156 2606 1428 2606 
Q 1700 2606 1854 2837 
Q 2009 3069 2009 3481 
Q 2009 3884 1853 4118 
Q 1697 4353 1428 4353 
z
M 4250 4750 
L 4750 4750 
L 1831 -91 
L 1331 -91 
L 4250 4750 
z
M 1428 4750 
Q 1922 4750 2215 4408 
Q 2509 4066 2509 3481 
Q 2509 2891 2217 2550 
Q 1925 2209 1428 2209 
Q 931 2209 642 2551 
Q 353 2894 353 3481 
Q 353 4063 643 4406 
Q 934 4750 1428 4750 
z
" transform="scale(0.015625)"/>
     </defs>
     <use xlink:href="#DejaVuSans-14"/>
     <use xlink:href="#DejaVuSans-13" transform="translate(63.625 0)"/>
     <use xlink:href="#DejaVuSans-f" transform="translate(127.25 0)"/>
     <use xlink:href="#DejaVuSans-15" transform="translate(159.03125 0)"/>
     <use xlink:href="#DejaVuSans-13" transform="translate(222.65625 0)"/>
     <use xlink:href="#DejaVuSans-13" transform="translate(286.28125 0)"/>
     <use xlink:href="#DejaVuSans-3" transform="translate(349.90625 0)"/>
     <use xlink:href="#DejaVuSans-3" transform="translate(381.6875 0)"/>
     <use xlink:href="#DejaVuSans-b" transform="translate(413.46875 0)"/>
     <use xlink:href="#DejaVuSans-14" transform="translate(452.484375 0)"/>
     <use xlink:href="#DejaVuSans-13" transform="translate(516.109375 0)"/>
     <use xlink:href="#DejaVuSans-13" transform="translate(579.734375 0)"/>
     <use xlink:href="#DejaVuSans-11" transform="translate(643.359375 0)"/>
     <use xlink:href="#DejaVuSans-13" transform="translate(675.140625 0)"/>
     <use xlink:href="#DejaVuSans-8" transform="translate(738.765625 0)"/>
     <use xlink:href="#DejaVuSans-c" transform="translate(833.78125 0)"/>
    </g>
   </g>
   <g id="text_14">
    <!-- 10,101  (99.0%) -->
    <g transform="translate(588.476174 95.391717) scale(0.095 -0.095)">
     <defs>
      <path id="DejaVuSans-1c" d="M 703 97 
L 703 672 
Q 941 559 1184 500 
Q 1428 441 1663 441 
Q 2288 441 2617 861 
Q 2947 1281 2994 2138 
Q 2813 1869 2534 1725 
Q 2256 1581 1919 1581 
Q 1219 1581 811 2004 
Q 403 2428 403 3163 
Q 403 3881 828 4315 
Q 1253 4750 1959 4750 
Q 2769 4750 3195 4129 
Q 3622 3509 3622 2328 
Q 3622 1225 3098 567 
Q 2575 -91 1691 -91 
Q 1453 -91 1209 -44 
Q 966 3 703 97 
z
M 1959 2075 
Q 2384 2075 2632 2365 
Q 2881 2656 2881 3163 
Q 2881 3666 2632 3958 
Q 2384 4250 1959 4250 
Q 1534 4250 1286 3958 
Q 1038 3666 1038 3163 
Q 1038 2656 1286 2365 
Q 1534 2075 1959 2075 
z
" transform="scale(0.015625)"/>
     </defs>
     <use xlink:href="#DejaVuSans-14"/>
     <use xlink:href="#DejaVuSans-13" transform="translate(63.625 0)"/>
     <use xlink:href="#DejaVuSans-f" transform="translate(127.25 0)"/>
     <use xlink:href="#DejaVuSans-14" transform="translate(159.03125 0)"/>
     <use xlink:href="#DejaVuSans-13" transform="translate(222.65625 0)"/>
     <use xlink:href="#DejaVuSans-14" transform="translate(286.28125 0)"/>
     <use xlink:href="#DejaVuSans-3" transform="translate(349.90625 0)"/>
     <use xlink:href="#DejaVuSans-3" transform="translate(381.6875 0)"/>
     <use xlink:href="#DejaVuSans-b" transform="translate(413.46875 0)"/>
     <use xlink:href="#DejaVuSans-1c" transform="translate(452.484375 0)"/>
     <use xlink:href="#DejaVuSans-1c" transform="translate(516.109375 0)"/>
     <use xlink:href="#DejaVuSans-11" transform="translate(579.734375 0)"/>
     <use xlink:href="#DejaVuSans-13" transform="translate(611.515625 0)"/>
     <use xlink:href="#DejaVuSans-8" transform="translate(675.140625 0)"/>
     <use xlink:href="#DejaVuSans-c" transform="translate(770.15625 0)"/>
    </g>
   </g>
   <g id="text_15">
    <!-- 1,939  (19.0%) -->
    <g transform="translate(271.984249 141.209898) scale(0.095 -0.095)">
     <defs>
      <path id="DejaVuSans-16" d="M 2597 2516 
Q 3050 2419 3304 2112 
Q 3559 1806 3559 1356 
Q 3559 666 3084 287 
Q 2609 -91 1734 -91 
Q 1441 -91 1130 -33 
Q 819 25 488 141 
L 488 750 
Q 750 597 1062 519 
Q 1375 441 1716 441 
Q 2309 441 2620 675 
Q 2931 909 2931 1356 
Q 2931 1769 2642 2001 
Q 2353 2234 1838 2234 
L 1294 2234 
L 1294 2753 
L 1863 2753 
Q 2328 2753 2575 2939 
Q 2822 3125 2822 3475 
Q 2822 3834 2567 4026 
Q 2313 4219 1838 4219 
Q 1578 4219 1281 4162 
Q 984 4106 628 3988 
L 628 4550 
Q 988 4650 1302 4700 
Q 1616 4750 1894 4750 
Q 2613 4750 3031 4423 
Q 3450 4097 3450 3541 
Q 3450 3153 3228 2886 
Q 3006 2619 2597 2516 
z
" transform="scale(0.015625)"/>
     </defs>
     <use xlink:href="#DejaVuSans-14"/>
     <use xlink:href="#DejaVuSans-f" transform="translate(63.625 0)"/>
     <use xlink:href="#DejaVuSans-1c" transform="translate(95.40625 0)"/>
     <use xlink:href="#DejaVuSans-16" transform="translate(159.03125 0)"/>
     <use xlink:href="#DejaVuSans-1c" transform="translate(222.65625 0)"/>
     <use xlink:href="#DejaVuSans-3" transform="translate(286.28125 0)"/>
     <use xlink:href="#DejaVuSans-3" transform="translate(318.0625 0)"/>
     <use xlink:href="#DejaVuSans-b" transform="translate(349.84375 0)"/>
     <use xlink:href="#DejaVuSans-14" transform="translate(388.859375 0)"/>
     <use xlink:href="#DejaVuSans-1c" transform="translate(452.484375 0)"/>
     <use xlink:href="#DejaVuSans-11" transform="translate(516.109375 0)"/>
     <use xlink:href="#DejaVuSans-13" transform="translate(547.890625 0)"/>
     <use xlink:href="#DejaVuSans-8" transform="translate(611.515625 0)"/>
     <use xlink:href="#DejaVuSans-c" transform="translate(706.53125 0)"/>
    </g>
   </g>
   <g id="text_16">
    <!-- 341  (3.3%) -->
    <g transform="translate(210.019767 187.02808) scale(0.095 -0.095)">
     <use xlink:href="#DejaVuSans-16"/>
     <use xlink:href="#DejaVuSans-17" transform="translate(63.625 0)"/>
     <use xlink:href="#DejaVuSans-14" transform="translate(127.25 0)"/>
     <use xlink:href="#DejaVuSans-3" transform="translate(190.875 0)"/>
     <use xlink:href="#DejaVuSans-3" transform="translate(222.65625 0)"/>
     <use xlink:href="#DejaVuSans-b" transform="translate(254.4375 0)"/>
     <use xlink:href="#DejaVuSans-16" transform="translate(293.453125 0)"/>
     <use xlink:href="#DejaVuSans-11" transform="translate(357.078125 0)"/>
     <use xlink:href="#DejaVuSans-16" transform="translate(388.859375 0)"/>
     <use xlink:href="#DejaVuSans-8" transform="translate(452.484375 0)"/>
     <use xlink:href="#DejaVuSans-c" transform="translate(547.5 0)"/>
    </g>
   </g>
   <g id="text_17">
    <!-- 129  (1.3%) -->
    <g transform="translate(201.799198 232.846262) scale(0.095 -0.095)">
     <use xlink:href="#DejaVuSans-14"/>
     <use xlink:href="#DejaVuSans-15" transform="translate(63.625 0)"/>
     <use xlink:href="#DejaVuSans-1c" transform="translate(127.25 0)"/>
     <use xlink:href="#DejaVuSans-3" transform="translate(190.875 0)"/>
     <use xlink:href="#DejaVuSans-3" transform="translate(222.65625 0)"/>
     <use xlink:href="#DejaVuSans-b" transform="translate(254.4375 0)"/>
     <use xlink:href="#DejaVuSans-14" transform="translate(293.453125 0)"/>
     <use xlink:href="#DejaVuSans-11" transform="translate(357.078125 0)"/>
     <use xlink:href="#DejaVuSans-16" transform="translate(388.859375 0)"/>
     <use xlink:href="#DejaVuSans-8" transform="translate(452.484375 0)"/>
     <use xlink:href="#DejaVuSans-c" transform="translate(547.5 0)"/>
    </g>
   </g>
   <g id="text_18">
    <!-- Corpus funnel — biomedical PMC OA census (2018–2025) -->
    <g transform="translate(228.772969 16.318125) scale(0.12 -0.12)">
     <defs>
      <path id="DejaVuSans-Bold-26" d="M 4288 256 
Q 3956 84 3597 -3 
Q 3238 -91 2847 -91 
Q 1681 -91 1000 561 
Q 319 1213 319 2328 
Q 319 3447 1000 4098 
Q 1681 4750 2847 4750 
Q 3238 4750 3597 4662 
Q 3956 4575 4288 4403 
L 4288 3438 
Q 3953 3666 3628 3772 
Q 3303 3878 2944 3878 
Q 2300 3878 1931 3465 
Q 1563 3053 1563 2328 
Q 1563 1606 1931 1193 
Q 2300 781 2944 781 
Q 3303 781 3628 887 
Q 3953 994 4288 1222 
L 4288 256 
z
" transform="scale(0.015625)"/>
      <path id="DejaVuSans-Bold-52" d="M 2203 2784 
Q 1831 2784 1636 2517 
Q 1441 2250 1441 1747 
Q 1441 1244 1636 976 
Q 1831 709 2203 709 
Q 2569 709 2762 976 
Q 2956 1244 2956 1747 
Q 2956 2250 2762 2517 
Q 2569 2784 2203 2784 
z
M 2203 3584 
Q 3106 3584 3614 3096 
Q 4122 2609 4122 1747 
Q 4122 884 3614 396 
Q 3106 -91 2203 -91 
Q 1297 -91 786 396 
Q 275 884 275 1747 
Q 275 2609 786 3096 
Q 1297 3584 2203 3584 
z
" transform="scale(0.015625)"/>
      <path id="DejaVuSans-Bold-55" d="M 3138 2547 
Q 2991 2616 2845 2648 
Q 2700 2681 2553 2681 
Q 2122 2681 1889 2404 
Q 1656 2128 1656 1613 
L 1656 0 
L 538 0 
L 538 3500 
L 1656 3500 
L 1656 2925 
Q 1872 3269 2151 3426 
Q 2431 3584 2822 3584 
Q 2878 3584 2943 3579 
Q 3009 3575 3134 3559 
L 3138 2547 
z
" transform="scale(0.015625)"/>
      <path id="DejaVuSans-Bold-53" d="M 1656 506 
L 1656 -1331 
L 538 -1331 
L 538 3500 
L 1656 3500 
L 1656 2988 
Q 1888 3294 2169 3439 
Q 2450 3584 2816 3584 
Q 3463 3584 3878 3070 
Q 4294 2556 4294 1747 
Q 4294 938 3878 423 
Q 3463 -91 2816 -91 
Q 2450 -91 2169 54 
Q 1888 200 1656 506 
z
M 2400 2772 
Q 2041 2772 1848 2508 
Q 1656 2244 1656 1747 
Q 1656 1250 1848 986 
Q 2041 722 2400 722 
Q 2759 722 2948 984 
Q 3138 1247 3138 1747 
Q 3138 2247 2948 2509 
Q 2759 2772 2400 2772 
z
" transform="scale(0.015625)"/>
      <path id="DejaVuSans-Bold-58" d="M 500 1363 
L 500 3500 
L 1625 3500 
L 1625 3150 
Q 1625 2866 1622 2436 
Q 1619 2006 1619 1863 
Q 1619 1441 1641 1255 
Q 1663 1069 1716 984 
Q 1784 875 1895 815 
Q 2006 756 2150 756 
Q 2500 756 2700 1025 
Q 2900 1294 2900 1772 
L 2900 3500 
L 4019 3500 
L 4019 0 
L 2900 0 
L 2900 506 
Q 2647 200 2364 54 
Q 2081 -91 1741 -91 
Q 1134 -91 817 281 
Q 500 653 500 1363 
z
" transform="scale(0.015625)"/>
      <path id="DejaVuSans-Bold-56" d="M 3272 3391 
L 3272 2541 
Q 2913 2691 2578 2766 
Q 2244 2841 1947 2841 
Q 1628 2841 1473 2761 
Q 1319 2681 1319 2516 
Q 1319 2381 1436 2309 
Q 1553 2238 1856 2203 
L 2053 2175 
Q 2913 2066 3209 1816 
Q 3506 1566 3506 1031 
Q 3506 472 3093 190 
Q 2681 -91 1863 -91 
Q 1516 -91 1145 -36 
Q 775 19 384 128 
L 384 978 
Q 719 816 1070 734 
Q 1422 653 1784 653 
Q 2113 653 2278 743 
Q 2444 834 2444 1013 
Q 2444 1163 2330 1236 
Q 2216 1309 1875 1350 
L 1678 1375 
Q 931 1469 631 1722 
Q 331 1975 331 2491 
Q 331 3047 712 3315 
Q 1094 3584 1881 3584 
Q 2191 3584 2531 3537 
Q 2872 3491 3272 3391 
z
" transform="scale(0.015625)"/>
      <path id="DejaVuSans-Bold-3" transform="scale(0.015625)"/>
      <path id="DejaVuSans-Bold-49" d="M 2841 4863 
L 2841 4128 
L 2222 4128 
Q 1984 4128 1890 4042 
Q 1797 3956 1797 3744 
L 1797 3500 
L 2753 3500 
L 2753 2700 
L 1797 2700 
L 1797 0 
L 678 0 
L 678 2700 
L 122 2700 
L 122 3500 
L 678 3500 
L 678 3744 
Q 678 4316 997 4589 
Q 1316 4863 1984 4863 
L 2841 4863 
z
" transform="scale(0.015625)"/>
      <path id="DejaVuSans-Bold-51" d="M 4056 2131 
L 4056 0 
L 2931 0 
L 2931 347 
L 2931 1631 
Q 2931 2084 2911 2256 
Q 2891 2428 2841 2509 
Q 2775 2619 2662 2680 
Q 2550 2741 2406 2741 
Q 2056 2741 1856 2470 
Q 1656 2200 1656 1722 
L 1656 0 
L 538 0 
L 538 3500 
L 1656 3500 
L 1656 2988 
Q 1909 3294 2193 3439 
Q 2478 3584 2822 3584 
Q 3428 3584 3742 3212 
Q 4056 2841 4056 2131 
z
" transform="scale(0.015625)"/>
      <path id="DejaVuSans-Bold-48" d="M 4031 1759 
L 4031 1441 
L 1416 1441 
Q 1456 1047 1700 850 
Q 1944 653 2381 653 
Q 2734 653 3104 758 
Q 3475 863 3866 1075 
L 3866 213 
Q 3469 63 3072 -14 
Q 2675 -91 2278 -91 
Q 1328 -91 801 392 
Q 275 875 275 1747 
Q 275 2603 792 3093 
Q 1309 3584 2216 3584 
Q 3041 3584 3536 3087 
Q 4031 2591 4031 1759 
z
M 2881 2131 
Q 2881 2450 2695 2645 
Q 2509 2841 2209 2841 
Q 1884 2841 1681 2658 
Q 1478 2475 1428 2131 
L 2881 2131 
z
" transform="scale(0.015625)"/>
      <path id="DejaVuSans-Bold-4f" d="M 538 4863 
L 1656 4863 
L 1656 0 
L 538 0 
L 538 4863 
z
" transform="scale(0.015625)"/>
      <path id="DejaVuSans-Bold-af6" d="M 344 2156 
L 6056 2156 
L 6056 1350 
L 344 1350 
L 344 2156 
z
" transform="scale(0.015625)"/>
      <path id="DejaVuSans-Bold-45" d="M 2400 722 
Q 2759 722 2948 984 
Q 3138 1247 3138 1747 
Q 3138 2247 2948 2509 
Q 2759 2772 2400 2772 
Q 2041 2772 1848 2508 
Q 1656 2244 1656 1747 
Q 1656 1250 1848 986 
Q 2041 722 2400 722 
z
M 1656 2988 
Q 1888 3294 2169 3439 
Q 2450 3584 2816 3584 
Q 3463 3584 3878 3070 
Q 4294 2556 4294 1747 
Q 4294 938 3878 423 
Q 3463 -91 2816 -91 
Q 2450 -91 2169 54 
Q 1888 200 1656 506 
L 1656 0 
L 538 0 
L 538 4863 
L 1656 4863 
L 1656 2988 
z
" transform="scale(0.015625)"/>
      <path id="DejaVuSans-Bold-4c" d="M 538 3500 
L 1656 3500 
L 1656 0 
L 538 0 
L 538 3500 
z
M 538 4863 
L 1656 4863 
L 1656 3950 
L 538 3950 
L 538 4863 
z
" transform="scale(0.015625)"/>
      <path id="DejaVuSans-Bold-50" d="M 3781 2919 
Q 3994 3244 4286 3414 
Q 4578 3584 4928 3584 
Q 5531 3584 5847 3212 
Q 6163 2841 6163 2131 
L 6163 0 
L 5038 0 
L 5038 1825 
Q 5041 1866 5042 1909 
Q 5044 1953 5044 2034 
Q 5044 2406 4934 2573 
Q 4825 2741 4581 2741 
Q 4263 2741 4089 2478 
Q 3916 2216 3909 1719 
L 3909 0 
L 2784 0 
L 2784 1825 
Q 2784 2406 2684 2573 
Q 2584 2741 2328 2741 
Q 2006 2741 1831 2477 
Q 1656 2213 1656 1722 
L 1656 0 
L 531 0 
L 531 3500 
L 1656 3500 
L 1656 2988 
Q 1863 3284 2130 3434 
Q 2397 3584 2719 3584 
Q 3081 3584 3359 3409 
Q 3638 3234 3781 2919 
z
" transform="scale(0.015625)"/>
      <path id="DejaVuSans-Bold-47" d="M 2919 2988 
L 2919 4863 
L 4044 4863 
L 4044 0 
L 2919 0 
L 2919 506 
Q 2688 197 2409 53 
Q 2131 -91 1766 -91 
Q 1119 -91 703 423 
Q 288 938 288 1747 
Q 288 2556 703 3070 
Q 1119 3584 1766 3584 
Q 2128 3584 2408 3439 
Q 2688 3294 2919 2988 
z
M 2181 722 
Q 2541 722 2730 984 
Q 2919 1247 2919 1747 
Q 2919 2247 2730 2509 
Q 2541 2772 2181 2772 
Q 1825 2772 1636 2509 
Q 1447 2247 1447 1747 
Q 1447 1247 1636 984 
Q 1825 722 2181 722 
z
" transform="scale(0.015625)"/>
      <path id="DejaVuSans-Bold-46" d="M 3366 3391 
L 3366 2478 
Q 3138 2634 2908 2709 
Q 2678 2784 2431 2784 
Q 1963 2784 1702 2511 
Q 1441 2238 1441 1747 
Q 1441 1256 1702 982 
Q 1963 709 2431 709 
Q 2694 709 2930 787 
Q 3166 866 3366 1019 
L 3366 103 
Q 3103 6 2833 -42 
Q 2563 -91 2291 -91 
Q 1344 -91 809 395 
Q 275 881 275 1747 
Q 275 2613 809 3098 
Q 1344 3584 2291 3584 
Q 2566 3584 2833 3536 
Q 3100 3488 3366 3391 
z
" transform="scale(0.015625)"/>
      <path id="DejaVuSans-Bold-44" d="M 2106 1575 
Q 1756 1575 1579 1456 
Q 1403 1338 1403 1106 
Q 1403 894 1545 773 
Q 1688 653 1941 653 
Q 2256 653 2472 879 
Q 2688 1106 2688 1447 
L 2688 1575 
L 2106 1575 
z
M 3816 1997 
L 3816 0 
L 2688 0 
L 2688 519 
Q 2463 200 2181 54 
Q 1900 -91 1497 -91 
Q 953 -91 614 226 
Q 275 544 275 1050 
Q 275 1666 698 1953 
Q 1122 2241 2028 2241 
L 2688 2241 
L 2688 2328 
Q 2688 2594 2478 2717 
Q 2269 2841 1825 2841 
Q 1466 2841 1156 2769 
Q 847 2697 581 2553 
L 581 3406 
Q 941 3494 1303 3539 
Q 1666 3584 2028 3584 
Q 2975 3584 3395 3211 
Q 3816 2838 3816 1997 
z
" transform="scale(0.015625)"/>
      <path id="DejaVuSans-Bold-33" d="M 588 4666 
L 2584 4666 
Q 3475 4666 3951 4270 
Q 4428 3875 4428 3144 
Q 4428 2409 3951 2014 
Q 3475 1619 2584 1619 
L 1791 1619 
L 1791 0 
L 588 0 
L 588 4666 
z
M 1791 3794 
L 1791 2491 
L 2456 2491 
Q 2806 2491 2997 2661 
Q 3188 2831 3188 3144 
Q 3188 3456 2997 3625 
Q 2806 3794 2456 3794 
L 1791 3794 
z
" transform="scale(0.015625)"/>
      <path id="DejaVuSans-Bold-30" d="M 588 4666 
L 2119 4666 
L 3181 2169 
L 4250 4666 
L 5778 4666 
L 5778 0 
L 4641 0 
L 4641 3413 
L 3566 897 
L 2803 897 
L 1728 3413 
L 1728 0 
L 588 0 
L 588 4666 
z
" transform="scale(0.015625)"/>
      <path id="DejaVuSans-Bold-32" d="M 2719 3878 
Q 2169 3878 1866 3472 
Q 1563 3066 1563 2328 
Q 1563 1594 1866 1187 
Q 2169 781 2719 781 
Q 3272 781 3575 1187 
Q 3878 1594 3878 2328 
Q 3878 3066 3575 3472 
Q 3272 3878 2719 3878 
z
M 2719 4750 
Q 3844 4750 4481 4106 
Q 5119 3463 5119 2328 
Q 5119 1197 4481 553 
Q 3844 -91 2719 -91 
Q 1597 -91 958 553 
Q 319 1197 319 2328 
Q 319 3463 958 4106 
Q 1597 4750 2719 4750 
z
" transform="scale(0.015625)"/>
      <path id="DejaVuSans-Bold-24" d="M 3419 850 
L 1538 850 
L 1241 0 
L 31 0 
L 1759 4666 
L 3194 4666 
L 4922 0 
L 3713 0 
L 3419 850 
z
M 1838 1716 
L 3116 1716 
L 2478 3572 
L 1838 1716 
z
" transform="scale(0.015625)"/>
      <path id="DejaVuSans-Bold-b" d="M 2413 -844 
L 1484 -844 
Q 1006 -72 778 623 
Q 550 1319 550 2003 
Q 550 2688 779 3389 
Q 1009 4091 1484 4856 
L 2413 4856 
Q 2013 4116 1813 3408 
Q 1613 2700 1613 2009 
Q 1613 1319 1811 609 
Q 2009 -100 2413 -844 
z
" transform="scale(0.015625)"/>
      <path id="DejaVuSans-Bold-15" d="M 1844 884 
L 3897 884 
L 3897 0 
L 506 0 
L 506 884 
L 2209 2388 
Q 2438 2594 2547 2791 
Q 2656 2988 2656 3200 
Q 2656 3528 2436 3728 
Q 2216 3928 1850 3928 
Q 1569 3928 1234 3808 
Q 900 3688 519 3450 
L 519 4475 
Q 925 4609 1322 4679 
Q 1719 4750 2100 4750 
Q 2938 4750 3402 4381 
Q 3866 4013 3866 3353 
Q 3866 2972 3669 2642 
Q 3472 2313 2841 1759 
L 1844 884 
z
" transform="scale(0.015625)"/>
      <path id="DejaVuSans-Bold-13" d="M 2944 2338 
Q 2944 3213 2780 3570 
Q 2616 3928 2228 3928 
Q 1841 3928 1675 3570 
Q 1509 3213 1509 2338 
Q 1509 1453 1675 1090 
Q 1841 728 2228 728 
Q 2613 728 2778 1090 
Q 2944 1453 2944 2338 
z
M 4147 2328 
Q 4147 1169 3647 539 
Q 3147 -91 2228 -91 
Q 1306 -91 806 539 
Q 306 1169 306 2328 
Q 306 3491 806 4120 
Q 1306 4750 2228 4750 
Q 3147 4750 3647 4120 
Q 4147 3491 4147 2328 
z
" transform="scale(0.015625)"/>
      <path id="DejaVuSans-Bold-14" d="M 750 831 
L 1813 831 
L 1813 3847 
L 722 3622 
L 722 4441 
L 1806 4666 
L 2950 4666 
L 2950 831 
L 4013 831 
L 4013 0 
L 750 0 
L 750 831 
z
" transform="scale(0.015625)"/>
      <path id="DejaVuSans-Bold-1b" d="M 2228 2088 
Q 1891 2088 1709 1903 
Q 1528 1719 1528 1375 
Q 1528 1031 1709 848 
Q 1891 666 2228 666 
Q 2563 666 2741 848 
Q 2919 1031 2919 1375 
Q 2919 1722 2741 1905 
Q 2563 2088 2228 2088 
z
M 1350 2484 
Q 925 2613 709 2878 
Q 494 3144 494 3541 
Q 494 4131 934 4440 
Q 1375 4750 2228 4750 
Q 3075 4750 3515 4442 
Q 3956 4134 3956 3541 
Q 3956 3144 3739 2878 
Q 3522 2613 3097 2484 
Q 3572 2353 3814 2058 
Q 4056 1763 4056 1313 
Q 4056 619 3595 264 
Q 3134 -91 2228 -91 
Q 1319 -91 855 264 
Q 391 619 391 1313 
Q 391 1763 633 2058 
Q 875 2353 1350 2484 
z
M 1631 3419 
Q 1631 3141 1786 2991 
Q 1941 2841 2228 2841 
Q 2509 2841 2662 2991 
Q 2816 3141 2816 3419 
Q 2816 3697 2662 3845 
Q 2509 3994 2228 3994 
Q 1941 3994 1786 3844 
Q 1631 3694 1631 3419 
z
" transform="scale(0.015625)"/>
      <path id="DejaVuSans-Bold-af5" d="M 344 2156 
L 2856 2156 
L 2856 1350 
L 344 1350 
L 344 2156 
z
" transform="scale(0.015625)"/>
      <path id="DejaVuSans-Bold-18" d="M 678 4666 
L 3669 4666 
L 3669 3781 
L 1638 3781 
L 1638 3059 
Q 1775 3097 1914 3117 
Q 2053 3138 2203 3138 
Q 3056 3138 3531 2711 
Q 4006 2284 4006 1522 
Q 4006 766 3489 337 
Q 2972 -91 2053 -91 
Q 1656 -91 1267 -14 
Q 878 63 494 219 
L 494 1166 
Q 875 947 1217 837 
Q 1559 728 1863 728 
Q 2300 728 2551 942 
Q 2803 1156 2803 1522 
Q 2803 1891 2551 2103 
Q 2300 2316 1863 2316 
Q 1603 2316 1309 2248 
Q 1016 2181 678 2041 
L 678 4666 
z
" transform="scale(0.015625)"/>
      <path id="DejaVuSans-Bold-c" d="M 513 -844 
Q 913 -100 1113 609 
Q 1313 1319 1313 2009 
Q 1313 2700 1113 3408 
Q 913 4116 513 4856 
L 1441 4856 
Q 1916 4091 2145 3389 
Q 2375 2688 2375 2003 
Q 2375 1319 2147 623 
Q 1919 -72 1441 -844 
L 513 -844 
z
" transform="scale(0.015625)"/>
     </defs>
     <use xlink:href="#DejaVuSans-Bold-26"/>
     <use xlink:href="#DejaVuSans-Bold-52" transform="translate(73.390625 0)"/>
     <use xlink:href="#DejaVuSans-Bold-55" transform="translate(142.09375 0)"/>
     <use xlink:href="#DejaVuSans-Bold-53" transform="translate(191.40625 0)"/>
     <use xlink:href="#DejaVuSans-Bold-58" transform="translate(262.984375 0)"/>
     <use xlink:href="#DejaVuSans-Bold-56" transform="translate(334.171875 0)"/>
     <use xlink:href="#DejaVuSans-Bold-3" transform="translate(393.6875 0)"/>
     <use xlink:href="#DejaVuSans-Bold-49" transform="translate(428.5 0)"/>
     <use xlink:href="#DejaVuSans-Bold-58" transform="translate(472 0)"/>
     <use xlink:href="#DejaVuSans-Bold-51" transform="translate(543.1875 0)"/>
     <use xlink:href="#DejaVuSans-Bold-51" transform="translate(614.375 0)"/>
     <use xlink:href="#DejaVuSans-Bold-48" transform="translate(685.5625 0)"/>
     <use xlink:href="#DejaVuSans-Bold-4f" transform="translate(753.390625 0)"/>
     <use xlink:href="#DejaVuSans-Bold-3" transform="translate(787.671875 0)"/>
     <use xlink:href="#DejaVuSans-Bold-af6" transform="translate(822.484375 0)"/>
     <use xlink:href="#DejaVuSans-Bold-3" transform="translate(922.484375 0)"/>
     <use xlink:href="#DejaVuSans-Bold-45" transform="translate(957.296875 0)"/>
     <use xlink:href="#DejaVuSans-Bold-4c" transform="translate(1028.875 0)"/>
     <use xlink:href="#DejaVuSans-Bold-52" transform="translate(1063.15625 0)"/>
     <use xlink:href="#DejaVuSans-Bold-50" transform="translate(1131.859375 0)"/>
     <use xlink:href="#DejaVuSans-Bold-48" transform="translate(1236.0625 0)"/>
     <use xlink:href="#DejaVuSans-Bold-47" transform="translate(1303.890625 0)"/>
     <use xlink:href="#DejaVuSans-Bold-4c" transform="translate(1375.46875 0)"/>
     <use xlink:href="#DejaVuSans-Bold-46" transform="translate(1409.75 0)"/>
     <use xlink:href="#DejaVuSans-Bold-44" transform="translate(1469.03125 0)"/>
     <use xlink:href="#DejaVuSans-Bold-4f" transform="translate(1536.515625 0)"/>
     <use xlink:href="#DejaVuSans-Bold-3" transform="translate(1570.796875 0)"/>
     <use xlink:href="#DejaVuSans-Bold-33" transform="translate(1605.609375 0)"/>
     <use xlink:href="#DejaVuSans-Bold-30" transform="translate(1678.90625 0)"/>
     <use xlink:href="#DejaVuSans-Bold-26" transform="translate(1778.421875 0)"/>
     <use xlink:href="#DejaVuSans-Bold-3" transform="translate(1851.8125 0)"/>
     <use xlink:href="#DejaVuSans-Bold-32" transform="translate(1886.625 0)"/>
     <use xlink:href="#DejaVuSans-Bold-24" transform="translate(1968.953125 0)"/>
     <use xlink:href="#DejaVuSans-Bold-3" transform="translate(2046.34375 0)"/>
     <use xlink:href="#DejaVuSans-Bold-46" transform="translate(2081.15625 0)"/>
     <use xlink:href="#DejaVuSans-Bold-48" transform="translate(2140.4375 0)"/>
     <use xlink:href="#DejaVuSans-Bold-51" transform="translate(2208.265625 0)"/>
     <use xlink:href="#DejaVuSans-Bold-56" transform="translate(2279.453125 0)"/>
     <use xlink:href="#DejaVuSans-Bold-58" transform="translate(2338.96875 0)"/>
     <use xlink:href="#DejaVuSans-Bold-56" transform="translate(2410.15625 0)"/>
     <use xlink:href="#DejaVuSans-Bold-3" transform="translate(2469.671875 0)"/>
     <use xlink:href="#DejaVuSans-Bold-b" transform="translate(2504.484375 0)"/>
     <use xlink:href="#DejaVuSans-Bold-15" transform="translate(2550.1875 0)"/>
     <use xlink:href="#DejaVuSans-Bold-13" transform="translate(2619.765625 0)"/>
     <use xlink:href="#DejaVuSans-Bold-14" transform="translate(2689.34375 0)"/>
     <use xlink:href="#DejaVuSans-Bold-1b" transform="translate(2758.921875 0)"/>
     <use xlink:href="#DejaVuSans-Bold-af5" transform="translate(2828.5 0)"/>
     <use xlink:href="#DejaVuSans-Bold-15" transform="translate(2878.5 0)"/>
     <use xlink:href="#DejaVuSans-Bold-13" transform="translate(2948.078125 0)"/>
     <use xlink:href="#DejaVuSans-Bold-15" transform="translate(3017.65625 0)"/>
     <use xlink:href="#DejaVuSans-Bold-18" transform="translate(3087.234375 0)"/>
     <use xlink:href="#DejaVuSans-Bold-c" transform="translate(3156.8125 0)"/>
    </g>
   </g>
  </g>
 </g>
 <defs>
  <clipPath id="p9c97f30747">
   <rect x="192.143906" y="22.318125" width="457.56" height="232.848"/>
  </clipPath>
 </defs>
</svg>
